<?xml version="1.0" encoding="UTF-8"?>
<svg width="30px" height="30px" viewBox="0 0 30 30" version="1.1"
     xmlns="http://www.w3.org/2000/svg"
>
    <title>sprint</title>
    <g id="Page-1" stroke="none" stroke-width="1" fill="none"
       fill-rule="evenodd">
        <g id="Sprint" transform="translate(-263.000000, -16.000000)">
            <g id="sprint" transform="translate(263.000000, 15.000000)">
                <g transform="translate(0.000000, 1.000000)">
                    <polygon id="Path" points="0 0 30 0 30 30 0 30"></polygon>
                    <path d="M16.8625,6.85 C18.2375,6.85 19.3625,5.725 19.3625,4.35 C19.3625,2.975 18.2375,1.85 16.8625,1.85 C15.4875,1.85 14.3625,2.975 14.3625,4.35 C14.3625,5.725 15.4875,6.85 16.8625,6.85 Z M12.3625,24.225 L13.6125,18.725 L16.2375,21.225 L16.2375,28.725 L18.7375,28.725 L18.7375,19.35 L16.1125,16.85 L16.8625,13.1 C18.4875,14.975 20.9875,16.225 23.7375,16.225 L23.7375,13.725 C21.3625,13.725 19.3625,12.475 18.3625,10.725 L17.1125,8.725 C16.6125,7.975 15.8625,7.475 14.9875,7.475 C14.6125,7.475 14.3625,7.6 13.9875,7.6 L7.4875,10.35 L7.4875,16.225 L9.9875,16.225 L9.9875,11.975 L12.2375,11.1 L10.2375,21.225 L4.1125,19.975 L3.6125,22.475 L12.3625,24.225 Z"
                          id="Shape" fill="#FFFFFF" fill-rule="nonzero"></path>
                </g>
            </g>
        </g>
    </g>
</svg>